<?xml version="1.0" encoding="utf-8"?>
<!-- Generator: Adobe Illustrator 25.0.1, SVG Export Plug-In . SVG Version: 6.00 Build 0)  -->
<svg version="1.1" id="Camada_1" xmlns="http://www.w3.org/2000/svg" x="0px" y="0px"
     viewBox="0 0 675.6 675.6" style="enable-background:new 0 0 675.6 675.6;" xml:space="preserve">
<style type="text/css">
	.st0{fill:#FFFFFF;}
</style>
<path class="st0" d="M337.8,0C151.2,0,0,151.2,0,337.8s151.2,337.8,337.8,337.8s337.8-151.2,337.8-337.8S524.4,0,337.8,0z
	 M598.5,400c-8.5,11.9-13.1,26.2-13.3,40.8l-0.3,25.1c-0.4,30.6-20,57.6-49,67.4l-23.8,8c-13.9,4.7-26,13.5-34.7,25.2l-15,20.1
	c-18.3,24.5-50,34.8-79.2,25.8l-24-7.5c-14-4.4-28.9-4.4-42.9,0l-24,7.5c-29.2,9.1-61-1.2-79.2-25.8l-15-20.2
	c-8.7-11.7-20.9-20.5-34.7-25.2l-23.8-8c-29-9.8-48.6-36.8-49-67.4l-0.3-25.1c-0.2-14.6-4.8-28.9-13.2-40.8l-14.5-20.5
	c-17.7-25-17.7-58.4,0-83.3L77,275.6c8.5-11.9,13.1-26.2,13.3-40.9l0.3-25.1c0.4-30.6,20-57.6,49-67.4l23.8-8
	c13.9-4.7,26-13.5,34.7-25.2l15-20.1c18.3-24.5,50-34.8,79.2-25.8l24,7.5c14,4.4,28.9,4.4,42.9,0l24-7.5c29.2-9.1,61,1.2,79.2,25.8
	l15,20.1c8.7,11.7,20.9,20.5,34.7,25.2l23.8,8c29,9.8,48.6,36.8,49,67.4l0.3,25.1c0.2,14.6,4.8,28.9,13.2,40.8l14.5,20.5
	c17.7,25,17.7,58.4,0,83.3L598.5,400z"/>
<path class="st0" d="M394.6,288l-35.2,99.6h23l6.3-19.3h33.7l6.3,19.3h23.4L416.8,288H394.6z M395.3,347.4l10.2-31.9l10.2,31.9
	H395.3z"/>
<polygon class="st0" points="197.5,325.4 166.7,325.4 166.7,288 144.2,288 144.2,387.6 166.7,387.6 166.7,348.7 197.5,348.7
	197.5,387.6 220,387.6 220,288 197.5,288 "/>
<path class="st0" d="M241.8,362.3c-6.9,0.2-12.3,6-12.1,12.9s6,12.3,12.9,12.1c6.9-0.2,12.3-6,12.1-12.9c0,0,0,0,0,0l0,0
	C254.5,367.5,248.7,362.1,241.8,362.3z"/>
<polygon class="st0" points="337.2,288 309.9,345.5 281.9,288 263.3,288 263.3,387.6 284.2,387.6 284.2,336.2 304.5,377.7
	314.5,377.7 335,334.8 335.2,387.6 356,387.6 355.7,288 "/>
<polygon class="st0" points="509.3,288 509.3,341 474.2,288 455.6,288 455.6,387.6 477.7,387.6 477.7,334.5 512.9,387.6
	531.4,387.6 531.4,288 509.3,288 "/>
</svg>
