<svg id="Camada_1" data-name="Camada 1" xmlns="http://www.w3.org/2000/svg" viewBox="0 0 547.6 547.6"><path d="M337.8,64C186.55,64,64,186.55,64,337.8S186.55,611.6,337.8,611.6,611.6,489.05,611.6,337.8,489.05,64,337.8,64ZM549.11,388.22a58.28,58.28,0,0,0-10.78,33.07l-.25,20.34a58.42,58.42,0,0,1-39.71,54.63l-19.29,6.48A58.33,58.33,0,0,0,451,523.17l-12.16,16.29a58.54,58.54,0,0,1-64.19,20.91l-19.45-6.08a58,58,0,0,0-34.78,0l-19.45,6.08a58.25,58.25,0,0,1-64.19-20.91l-12.16-16.37a58.7,58.7,0,0,0-28.13-20.43l-19.29-6.48a58.44,58.44,0,0,1-39.72-54.63l-.24-20.35a58.86,58.86,0,0,0-10.7-33.07l-11.75-16.61a58.33,58.33,0,0,1,0-67.52l11.67-16.62a58.34,58.34,0,0,0,10.78-33.15l.24-20.34a58.44,58.44,0,0,1,39.72-54.63l19.29-6.49a58.31,58.31,0,0,0,28.13-20.42l12.16-16.29a58.54,58.54,0,0,1,64.19-20.91l19.45,6.07a57.81,57.81,0,0,0,34.78,0l19.45-6.07a58.25,58.25,0,0,1,64.19,20.91L451,152.35a58.68,58.68,0,0,0,28.13,20.42l19.29,6.49a58.42,58.42,0,0,1,39.71,54.63l.25,20.34A58.81,58.81,0,0,0,549,287.3l11.75,16.62a58.33,58.33,0,0,1,0,67.52Z" transform="translate(-64 -64)"/><path d="M383.84,297.44l-28.53,80.72H374l5.11-15.64h27.31l5.11,15.64h19l-28.61-80.72Zm.57,48.14,8.26-25.86,8.27,25.86Z" transform="translate(-64 -64)"/><polygon points="160.08 263.75 135.12 263.75 135.12 233.44 116.88 233.44 116.88 314.17 135.12 314.17 135.12 282.63 160.08 282.63 160.08 314.17 178.32 314.17 178.32 233.44 160.08 233.44 160.08 263.75"/><path d="M260,357.66a10.14,10.14,0,1,0,10.45,9.81h0A10.14,10.14,0,0,0,260,357.66Z" transform="translate(-64 -64)"/><polygon points="273.31 233.44 251.19 280.04 228.49 233.44 213.41 233.44 213.41 314.17 230.35 314.17 230.35 272.5 246.81 306.14 254.91 306.14 271.53 271.37 271.69 314.17 288.55 314.17 288.31 233.44 273.31 233.44"/><polygon points="412.81 233.44 412.81 276.39 384.36 233.44 369.28 233.44 369.28 314.17 387.19 314.17 387.19 271.13 415.73 314.17 430.72 314.17 430.72 233.44 412.81 233.44"/></svg>