<?xml version="1.0" encoding="utf-8"?>
<!-- Generator: Adobe Illustrator 24.3.0, SVG Export Plug-In . SVG Version: 6.00 Build 0)  -->
<svg version="1.1" id="Camada_1" xmlns="http://www.w3.org/2000/svg" xmlns:xlink="http://www.w3.org/1999/xlink" x="0px" y="0px"
	 viewBox="0 0 177 354" style="enable-background:new 0 0 177 354;" xml:space="preserve">
<style type="text/css">
	.st0{fill:#08060B;}
</style>
<g>
	<g>
		<g>
			<g>
				<path class="st0" d="M129.6,6.2H47.4l2.5,8.2c1.1,3.8,4.7,6.4,8.6,6.4h59.9c4,0,7.5-2.6,8.6-6.4L129.6,6.2L129.6,6.2z"/>
			</g>
			<g>
				<path class="st0" d="M5.3,62.7h-3c-1.2,0-2.2-1-2.2-2.2v-9.6c0-1.2,1-2.2,2.2-2.2h3c1.2,0,2.2,1,2.2,2.2v9.6
					C7.5,61.7,6.5,62.7,5.3,62.7z"/>
				<path class="st0" d="M5.3,98.8h-3c-1.2,0-2.2-1-2.2-2.2V74.9c0-1.2,1-2.2,2.2-2.2h3c1.2,0,2.2,1,2.2,2.2v21.7
					C7.5,97.8,6.5,98.8,5.3,98.8z"/>
				<path class="st0" d="M5.3,131.9h-3c-1.2,0-2.2-1-2.2-2.2V108c0-1.2,1-2.2,2.2-2.2h3c1.2,0,2.2,1,2.2,2.2v21.7
					C7.5,130.9,6.5,131.9,5.3,131.9z"/>
				<path class="st0" d="M174.8,124h-3c-1.2,0-2.2-1-2.2-2.2V85.2c0-1.2,1-2.2,2.2-2.2h3c1.2,0,2.2,1,2.2,2.2v36.5
					C177,123,176,124,174.8,124z"/>
			</g>
			<g>
				<path class="st0" d="M151.5,7c9.5,0,17.3,7.7,17.3,17.3v305.5c0,9.5-7.7,17.3-17.3,17.3h-126c-9.5,0-17.3-7.7-17.3-17.3V24.3
					C8.3,14.7,16,7,25.5,7H151.5 M151.5,0h-126C12.1,0,1.3,10.9,1.3,24.3v305.5c0,13.4,10.9,24.3,24.3,24.3h126
					c13.4,0,24.3-10.9,24.3-24.3V24.3C175.7,10.9,164.9,0,151.5,0L151.5,0z"/>
			</g>
		</g>
	</g>
</g>
</svg>
